<?xml version="1.0" standalone="no"?>
<!DOCTYPE svg PUBLIC "-//W3C//DTD SVG 20010904//EN"
 "http://www.w3.org/TR/2001/REC-SVG-20010904/DTD/svg10.dtd">
<svg version="1.0" xmlns="http://www.w3.org/2000/svg"
 width="512.000000pt" height="512.000000pt" viewBox="0 0 512.000000 512.000000"
 preserveAspectRatio="xMidYMid meet">

<g transform="translate(0.000000,512.000000) scale(0.100000,-0.100000)"
fill="#000000" stroke="none">
<path d="M0 2560 l0 -2560 2560 0 2560 0 0 2560 0 2560 -2560 0 -2560 0 0
-2560z m4588 1524 c23 -19 42 -44 42 -55 0 -10 5 -19 10 -19 7 0 10 -238 10
-695 0 -457 -3 -695 -10 -695 -5 0 -10 -9 -10 -20 0 -11 -4 -20 -9 -20 -5 0
-13 -9 -16 -20 -3 -11 -13 -20 -21 -20 -8 0 -14 -4 -14 -10 0 -5 -9 -10 -20
-10 -11 0 -20 -4 -20 -10 0 -5 -24 -10 -54 -10 -57 0 -66 7 -66 56 0 22 4 24
45 24 25 0 45 5 45 10 0 6 9 10 19 10 11 0 23 9 26 20 3 11 11 20 16 20 12 0
12 520 -1 540 -6 10 -32 17 -72 20 -57 5 -63 7 -66 29 -5 31 12 41 68 41 56 0
73 10 68 41 -3 22 -8 24 -65 27 -66 3 -82 18 -68 62 5 17 15 20 71 20 62 0 64
1 64 26 0 38 -21 53 -81 56 -50 3 -54 5 -57 29 -3 22 2 27 29 33 17 3 47 6 66
6 22 0 36 6 40 16 12 32 -11 49 -73 54 -58 5 -59 6 -59 35 0 30 0 30 62 33 66
3 82 18 68 62 -5 17 -15 20 -71 20 l-64 0 0 30 c0 30 0 30 56 30 65 0 78 10
87 67 8 47 -14 107 -42 119 -9 3 -194 5 -413 4 l-396 -1 -16 22 c-11 16 -12
27 -5 41 9 17 32 18 433 18 l422 0 42 -36z m-2782 -288 c8 -8 14 -20 14 -26 0
-7 9 -29 19 -49 10 -20 31 -63 46 -96 14 -33 32 -71 39 -85 7 -14 16 -37 20
-52 3 -16 11 -28 16 -28 6 0 10 -7 10 -15 0 -8 18 -51 40 -96 22 -45 40 -88
40 -96 0 -7 5 -13 10 -13 6 0 10 -9 10 -19 0 -11 5 -23 10 -26 6 -3 10 -15 10
-26 0 -10 5 -19 10 -19 6 0 10 -9 10 -20 0 -11 5 -20 10 -20 6 0 10 -13 10
-30 0 -16 5 -30 10 -30 6 0 10 -9 10 -20 0 -11 5 -20 10 -20 6 0 10 -9 10 -20
0 -11 5 -20 10 -20 6 0 10 -9 10 -20 0 -11 5 -20 10 -20 6 0 10 -11 10 -25 0
-14 9 -35 20 -47 11 -12 20 -32 20 -45 0 -13 3 -23 8 -23 7 0 21 -29 43 -92 7
-21 16 -38 21 -38 4 0 12 -18 18 -40 6 -21 16 -45 23 -52 12 -13 27 -49 51
-115 6 -18 14 -33 18 -33 5 0 8 -9 8 -20 0 -11 5 -20 10 -20 6 0 10 -11 10
-25 0 -14 5 -25 10 -25 6 0 10 -9 10 -20 0 -11 5 -20 10 -20 6 0 10 -6 10 -13
0 -18 24 -67 33 -67 4 0 7 -13 7 -30 0 -16 5 -30 10 -30 6 0 10 -9 10 -20 0
-19 -7 -20 -181 -20 -196 0 -209 3 -209 54 0 14 -4 26 -10 26 -5 0 -10 9 -10
20 0 11 -4 20 -10 20 -5 0 -10 11 -10 25 0 14 -4 25 -10 25 -5 0 -10 14 -10
30 0 17 -4 30 -10 30 -5 0 -10 9 -10 20 0 11 -4 20 -10 20 -5 0 -10 9 -10 21
0 11 -9 34 -21 50 l-20 29 -390 0 c-382 0 -389 0 -389 -20 0 -11 -4 -20 -10
-20 -5 0 -10 -7 -10 -15 0 -8 -4 -23 -9 -33 -23 -42 -51 -113 -51 -127 0 -8
-4 -15 -10 -15 -5 0 -10 -5 -10 -11 0 -6 -12 -38 -26 -70 l-27 -59 -178 0
-179 0 0 25 c0 14 9 35 20 47 11 12 20 32 20 45 0 13 5 23 10 23 6 0 10 9 10
20 0 11 5 20 10 20 6 0 10 11 10 25 0 14 5 25 10 25 6 0 10 9 10 20 0 11 5 20
10 20 6 0 10 9 10 20 0 11 5 20 10 20 6 0 10 9 10 20 0 11 5 20 10 20 6 0 10
14 10 30 0 17 5 30 10 30 6 0 10 9 10 20 0 11 4 20 9 20 5 0 11 13 14 29 3 16
13 36 22 44 8 9 15 27 15 41 0 14 4 26 9 26 5 0 14 15 21 33 7 17 32 72 56
120 24 49 44 95 44 103 0 8 5 14 10 14 6 0 10 8 10 18 0 9 14 41 30 71 17 30
30 62 30 73 0 10 5 18 10 18 6 0 10 9 10 20 0 11 5 20 10 20 6 0 10 11 10 25
0 14 5 25 10 25 6 0 10 9 10 20 0 11 5 20 10 20 6 0 10 9 10 20 0 11 5 20 10
20 6 0 10 11 10 25 0 14 5 25 10 25 6 0 10 11 10 25 0 14 5 25 10 25 6 0 10 9
10 20 0 11 5 20 10 20 6 0 10 9 10 20 0 11 5 20 10 20 6 0 10 7 10 15 0 17 22
69 88 203 l45 92 144 0 c112 0 148 -3 159 -14z m1164 -6 c0 -11 5 -20 10 -20
6 0 10 -9 10 -20 0 -11 5 -20 10 -20 6 0 10 -11 10 -25 0 -14 3 -25 8 -25 4 0
13 -15 20 -32 7 -18 18 -41 23 -50 5 -10 13 -26 18 -35 5 -10 16 -33 23 -50 7
-18 16 -33 19 -33 4 0 9 -13 12 -29 3 -16 13 -36 22 -44 8 -9 15 -20 15 -26 0
-5 29 -67 65 -136 36 -70 65 -133 65 -141 0 -8 5 -14 10 -14 6 0 10 -9 10 -20
0 -11 5 -20 10 -20 6 0 10 -9 10 -20 0 -11 5 -20 10 -20 6 0 10 -9 10 -20 0
-11 5 -20 10 -20 6 0 10 -9 10 -20 0 -11 3 -20 6 -20 11 0 34 29 34 44 0 9 5
16 10 16 6 0 10 9 10 20 0 11 5 20 10 20 6 0 10 6 10 13 0 18 24 67 33 67 4 0
7 6 7 13 0 18 24 67 33 67 4 0 7 9 7 21 0 11 9 32 20 46 11 14 20 32 20 40 0
8 9 26 20 40 11 14 20 33 20 43 0 9 9 28 21 41 11 13 23 36 26 51 3 16 9 28
12 28 4 0 13 17 20 38 8 20 17 39 20 42 13 11 31 51 31 70 0 11 3 20 8 20 8 0
32 49 32 67 0 7 5 13 10 13 6 0 10 7 10 16 0 40 21 44 223 44 108 0 202 -3
211 -6 14 -6 16 -88 16 -836 0 -705 -2 -832 -14 -844 -11 -11 -47 -14 -159
-14 -123 0 -146 2 -151 16 -3 9 -6 281 -6 605 0 386 -3 589 -10 589 -5 0 -10
-7 -10 -15 0 -8 -4 -15 -10 -15 -5 0 -10 -11 -10 -25 0 -14 -4 -25 -10 -25 -5
0 -10 -7 -10 -15 0 -8 -4 -15 -10 -15 -5 0 -10 -9 -10 -20 0 -11 -4 -20 -10
-20 -5 0 -10 -9 -10 -20 0 -11 -4 -20 -10 -20 -5 0 -10 -9 -10 -20 0 -11 -4
-20 -10 -20 -5 0 -10 -9 -10 -20 0 -11 -4 -20 -10 -20 -5 0 -10 -9 -10 -20 0
-11 -4 -20 -10 -20 -5 0 -10 -9 -10 -20 0 -11 -4 -20 -10 -20 -5 0 -10 -9 -10
-20 0 -11 -4 -20 -8 -20 -5 0 -19 -24 -33 -52 -13 -29 -43 -88 -66 -131 -24
-42 -43 -82 -43 -88 0 -6 -7 -17 -15 -25 -8 -9 -18 -27 -22 -42 -3 -15 -14
-34 -25 -43 -10 -9 -18 -24 -18 -33 0 -14 -15 -16 -106 -16 -97 0 -106 2 -111
20 -3 11 -9 20 -14 20 -5 0 -9 9 -9 19 0 11 -3 21 -7 23 -5 2 -26 37 -47 78
-22 41 -48 90 -58 108 -10 18 -18 39 -18 47 0 8 -3 15 -7 15 -9 0 -33 49 -33
67 0 7 -3 13 -7 13 -9 0 -33 48 -33 65 0 6 -9 17 -20 25 -11 8 -20 22 -20 32
0 10 -4 18 -10 18 -5 0 -10 11 -10 25 0 14 -4 25 -10 25 -5 0 -10 9 -10 20 0
11 -4 20 -10 20 -5 0 -10 9 -10 19 0 11 -3 21 -7 23 -11 4 -53 87 -53 104 0 8
-7 14 -15 14 -13 0 -15 -71 -15 -575 l0 -575 -55 0 c-51 0 -55 2 -61 27 -4 15
-14 34 -21 42 -8 7 -17 26 -20 42 -3 16 -8 29 -12 29 -3 0 -12 15 -19 33 -24
56 -35 77 -44 77 -4 0 -8 10 -8 23 0 13 -9 33 -20 45 -11 12 -20 32 -20 44 0
13 -9 30 -20 38 -20 14 -20 26 -20 637 l0 623 215 0 c208 0 215 -1 215 -20z
m-2126 -2306 c9 -3 16 -17 16 -30 0 -13 5 -24 10 -24 6 0 10 -9 10 -20 0 -11
5 -20 10 -20 6 0 10 -9 10 -20 0 -11 5 -20 10 -20 6 0 10 -9 10 -20 0 -11 5
-20 10 -20 6 0 10 -8 10 -17 0 -10 9 -33 20 -51 11 -18 20 -41 20 -52 0 -11 4
-20 8 -20 8 0 32 -43 32 -55 0 -3 -18 -5 -40 -5 -29 0 -40 4 -40 15 0 8 -4 15
-10 15 -5 0 -10 5 -10 11 0 29 -30 39 -113 39 -80 0 -84 -1 -95 -25 -7 -14
-12 -32 -12 -40 0 -11 -12 -15 -40 -15 -22 0 -40 3 -40 8 0 4 9 25 20 47 10
22 25 55 32 73 7 17 16 32 20 32 5 0 8 14 8 30 0 17 3 30 8 30 4 0 13 14 20
30 6 17 18 44 24 60 7 17 16 30 20 30 5 0 8 6 8 14 0 22 33 32 64 20z m1868
-5 c14 -6 37 -39 58 -80 19 -39 41 -75 48 -81 6 -6 12 -19 12 -29 0 -12 7 -19
20 -19 13 0 20 7 20 20 0 11 4 20 8 20 5 0 20 21 33 48 13 26 27 49 32 50 4 2
7 12 7 23 0 10 5 19 10 19 6 0 10 7 10 15 0 11 11 15 40 15 l40 0 0 -185 0
-185 -30 0 -30 0 0 110 c0 103 -1 110 -20 110 -13 0 -20 -7 -20 -20 0 -11 -4
-20 -10 -20 -5 0 -10 -9 -10 -20 0 -11 -4 -20 -8 -20 -4 0 -19 -22 -33 -50
-13 -27 -31 -50 -39 -50 -8 0 -24 18 -34 40 -11 22 -23 40 -28 40 -4 0 -8 8
-8 18 0 11 -9 29 -20 42 -11 13 -20 27 -20 32 0 4 -7 8 -16 8 -11 0 -14 -5
-10 -16 3 -9 3 -59 0 -110 l-7 -94 -33 0 -34 0 0 180 c0 160 2 180 18 189 22
13 26 13 54 0z m-1240 -105 c25 -9 38 -66 38 -171 l0 -93 -35 0 -35 0 0 88 c0
97 -16 132 -59 132 -41 0 -50 -22 -53 -121 l-3 -94 -37 -3 -38 -3 0 96 c0 109
-8 125 -63 125 -45 0 -57 -27 -57 -135 l0 -85 -35 0 -35 0 0 140 0 140 34 0
c19 0 36 -6 39 -12 4 -10 7 -10 18 0 15 14 119 16 119 2 0 -13 63 -13 76 -1
20 20 61 18 126 -5z m276 16 c9 0 29 -11 45 -24 27 -23 27 -25 27 -140 l0
-116 -30 0 c-20 0 -30 5 -30 15 0 8 -3 15 -6 15 -3 0 -12 -7 -20 -15 -10 -9
-34 -15 -64 -15 -63 0 -90 25 -90 85 0 59 23 75 110 75 57 0 70 3 70 16 0 8
-6 22 -14 30 -18 17 -97 19 -115 2 -10 -11 -15 -9 -27 6 -8 11 -14 25 -14 31
0 16 101 47 128 39 8 -2 21 -4 30 -4z m635 -13 c15 -7 30 -20 33 -29 3 -10 10
-18 15 -18 5 0 9 -13 9 -29 0 -16 5 -31 11 -33 5 -2 7 -11 4 -21 -6 -15 -22
-17 -116 -17 -60 0 -109 -2 -109 -5 0 -3 10 -16 22 -30 24 -27 82 -34 119 -15
15 8 23 7 34 -4 17 -17 10 -46 -11 -46 -8 0 -14 -4 -14 -10 0 -14 -116 -12
-143 3 -35 19 -67 60 -67 85 0 12 -4 22 -10 22 -5 0 -10 14 -10 30 0 17 5 30
10 30 6 0 10 7 10 16 0 9 16 31 36 50 49 44 107 51 177 21z m955 2 c2 -5 12
-9 23 -9 12 0 19 -7 19 -20 0 -11 5 -20 10 -20 6 0 10 -9 10 -20 0 -11 5 -20
10 -20 6 0 10 -13 10 -30 l0 -30 -104 0 c-58 0 -107 -4 -111 -9 -3 -6 5 -19
17 -30 24 -23 96 -29 116 -9 14 14 42 -6 42 -31 0 -40 -139 -58 -182 -23 -59
47 -68 63 -68 119 0 86 34 129 115 146 27 6 89 -4 93 -14z m844 11 c41 -12 98
-60 98 -84 0 -9 5 -16 10 -16 6 0 10 -18 10 -40 0 -22 -4 -40 -10 -40 -5 0
-10 -7 -10 -15 0 -18 -36 -57 -68 -74 -39 -21 -119 -14 -162 15 -22 15 -40 33
-40 40 0 8 -4 14 -10 14 -6 0 -10 27 -10 60 0 33 3 60 8 60 4 0 13 13 20 29
12 27 23 34 82 51 36 11 41 11 82 0z m-2066 -15 c9 -8 11 -15 5 -15 -6 0 -11
-9 -11 -20 0 -11 -4 -20 -10 -20 -5 0 -10 -5 -10 -11 0 -6 -22 -32 -50 -59
-70 -68 -67 -80 20 -80 l70 0 0 -30 0 -30 -125 0 -125 0 0 29 c0 22 17 46 75
105 41 42 75 79 75 81 0 3 -29 5 -64 5 -67 0 -92 13 -80 44 9 23 208 24 230 1z
m1426 4 c3 -9 9 -9 25 0 36 19 106 14 131 -9 l22 -21 22 21 c32 30 111 28 142
-3 40 -40 46 -62 46 -161 l0 -96 -40 0 -40 0 0 96 c0 109 -8 124 -64 124 -29
0 -36 -4 -36 -20 0 -11 -4 -20 -10 -20 -6 0 -10 -37 -10 -90 l0 -90 -29 0 -28
0 -6 95 c-4 65 -10 100 -20 110 -17 17 -77 21 -77 5 0 -5 -7 -10 -15 -10 -12
0 -15 -18 -15 -100 l0 -100 -40 0 -40 0 0 140 0 140 39 0 c22 0 41 -5 43 -11z"/>
<path d="M1640 3403 c0 -13 -4 -23 -10 -23 -5 0 -10 -7 -10 -15 0 -14 -21 -65
-61 -150 -11 -22 -19 -44 -19 -50 0 -5 -9 -28 -19 -50 -10 -22 -31 -69 -46
-105 -15 -36 -36 -82 -46 -103 -11 -22 -19 -47 -19 -58 0 -10 -4 -19 -10 -19
-5 0 -10 -7 -10 -15 0 -8 -5 -24 -12 -35 -7 -10 -9 -23 -5 -27 11 -11 519 -16
535 -5 14 9 12 18 -28 107 -10 22 -21 52 -24 67 -3 15 -13 33 -21 42 -8 8 -15
26 -15 40 0 14 -4 26 -10 26 -5 0 -10 9 -10 20 0 11 -4 20 -10 20 -5 0 -10 14
-10 30 0 17 -4 30 -10 30 -5 0 -10 9 -10 19 0 11 -4 23 -10 26 -5 3 -10 15
-10 26 0 10 -4 19 -10 19 -5 0 -10 9 -10 20 0 11 -4 20 -10 20 -5 0 -10 14
-10 30 0 17 -4 30 -10 30 -5 0 -10 9 -10 20 0 11 -4 20 -10 20 -5 0 -10 8 -10
18 0 9 -5 24 -10 32 -8 12 -10 11 -10 -7z"/>
<path d="M800 1364 c0 -8 -4 -14 -10 -14 -5 0 -10 -13 -10 -30 0 -16 -4 -30
-10 -30 -5 0 -10 -9 -10 -20 0 -17 7 -20 50 -20 l50 0 0 40 c0 22 -4 40 -10
40 -5 0 -10 8 -10 19 0 10 -9 21 -20 24 -13 3 -20 0 -20 -9z"/>
<path d="M1653 1215 c-17 -18 -16 -33 1 -51 22 -21 54 -17 81 11 40 39 33 55
-22 55 -29 -1 -53 -7 -60 -15z"/>
<path d="M2295 1340 c-4 -6 -14 -10 -24 -10 -14 0 -41 -36 -41 -55 0 -3 31 -5
69 -5 53 0 70 4 75 16 7 18 -8 34 -46 51 -17 8 -30 9 -33 3z"/>
<path d="M3243 1337 c-18 -9 -43 -45 -43 -62 0 -3 18 -5 40 -5 22 0 40 5 40
10 0 6 14 10 30 10 33 0 36 5 17 24 -13 13 -53 37 -59 35 -2 -1 -13 -6 -25
-12z"/>
<path d="M4078 1308 c-28 -35 -22 -118 8 -118 8 0 14 -4 14 -10 0 -21 70 -10
95 15 34 33 33 115 -1 115 -8 0 -14 5 -14 10 0 6 -19 10 -42 10 -32 0 -47 -6
-60 -22z"/>
</g>
</svg>
